<?xml version="1.0" encoding="utf-8"?>
<!-- Generator: Adobe Illustrator 14.0.0, SVG Export Plug-In . SVG Version: 6.00 Build 43363)  -->
<!DOCTYPE svg PUBLIC "-//W3C//DTD SVG 1.1//EN" "http://www.w3.org/Graphics/SVG/1.1/DTD/svg11.dtd">
<svg version="1.1" id="Ebene_1" xmlns="http://www.w3.org/2000/svg" xmlns:xlink="http://www.w3.org/1999/xlink" x="0px" y="0px"
	 width="602.252px" height="602.248px" viewBox="4.875 94.875 602.252 602.248"
	 enable-background="new 4.875 94.875 602.252 602.248" xml:space="preserve">
<path d="M306,149.133c80.404,0,89.927,0.307,121.683,1.756c29.359,1.34,45.303,6.245,55.914,10.368
	c13.08,4.827,24.911,12.524,34.624,22.526c10.001,9.713,17.698,21.544,22.525,34.623c4.124,10.611,9.029,26.555,10.368,55.915
	c1.449,31.753,1.756,41.276,1.756,121.683c0,80.407-0.307,89.927-1.756,121.683c-1.34,29.359-6.245,45.302-10.368,55.914
	c-10.13,26.262-30.888,47.019-57.149,57.149c-10.61,4.124-26.555,9.029-55.914,10.368c-31.747,1.448-41.271,1.756-121.683,1.756
	s-89.932-0.308-121.683-1.756c-29.359-1.34-45.303-6.246-55.915-10.368c-13.079-4.827-24.91-12.524-34.624-22.525
	c-10.001-9.714-17.698-21.545-22.525-34.624c-4.124-10.61-9.03-26.555-10.368-55.914c-1.449-31.752-1.756-41.276-1.756-121.683
	c0-80.406,0.307-89.927,1.756-121.683c1.34-29.359,6.244-45.302,10.368-55.915c4.828-13.08,12.526-24.911,22.528-34.625
	c9.713-10.001,21.544-17.698,34.624-22.525c10.611-4.124,26.555-9.03,55.914-10.368c31.754-1.449,41.277-1.756,121.683-1.756
	 M306.002,94.875c-81.78,0-92.039,0.347-124.152,1.812c-32.052,1.463-53.941,6.553-73.095,13.998
	c-20.092,7.561-38.293,19.414-53.334,34.732c-15.322,15.04-27.178,33.242-34.742,53.335c-7.438,19.155-12.528,41.043-13.985,73.096
	C5.222,303.961,4.875,314.219,4.875,396c0,81.781,0.347,92.039,1.818,124.152c1.463,32.053,6.553,53.94,13.997,73.095
	c7.561,20.092,19.414,38.294,34.732,53.335c15.041,15.318,33.243,27.171,53.335,34.731c19.155,7.445,41.043,12.534,73.095,13.997
	c32.118,1.466,42.373,1.813,124.152,1.813c81.779,0,92.039-0.347,124.152-1.813c32.052-1.463,53.94-6.552,73.095-13.997
	c40.447-15.644,72.423-47.619,88.066-88.066c7.444-19.155,12.534-41.044,13.997-73.095c1.466-32.118,1.813-42.373,1.813-124.152
	c0-81.78-0.347-92.039-1.813-124.152c-1.463-32.052-6.553-53.941-13.997-73.095c-7.561-20.092-19.414-38.294-34.731-53.334
	c-15.042-15.321-33.244-27.177-53.339-34.74c-19.155-7.438-41.043-12.528-73.096-13.985c-32.113-1.472-42.371-1.818-124.152-1.818
	l0,0H306.002z"/>
<path d="M306,241.368c-85.401,0-154.632,69.231-154.632,154.632c0,85.4,69.231,154.632,154.632,154.632
	c85.4,0,154.632-69.231,154.632-154.632l0,0C460.632,310.599,391.4,241.368,306,241.368z M306,496.374
	c-55.435-0.001-100.374-44.94-100.373-100.375c0-55.435,44.94-100.374,100.375-100.373S406.375,340.565,406.375,396
	C406.375,451.436,361.436,496.374,306,496.374z"/>
<circle cx="466.741" cy="235.259" r="36.134"/>
</svg>
