<?xml version="1.0" encoding="iso-8859-1"?>
<!-- Generator: Adobe Illustrator 19.0.0, SVG Export Plug-In . SVG Version: 6.00 Build 0)  -->
<svg version="1.1" id="Layer_1" xmlns="http://www.w3.org/2000/svg" xmlns:xlink="http://www.w3.org/1999/xlink" x="0px" y="0px"
	 viewBox="0 0 231.289 231.289" style="enable-background:new 0 0 231.289 231.289;" xml:space="preserve" width="128" height="128">
<g>
	<g>
		<g>
			<path d="M173.456,127.154c-2.725,0-4.942-2.217-4.942-4.941c0-2.726,2.217-4.943,4.942-4.943s4.942,2.218,4.942,4.943
				C178.398,124.938,176.181,127.154,173.456,127.154z M173.456,119.27c-1.623,0-2.942,1.32-2.942,2.943
				c0,1.622,1.32,2.941,2.942,2.941s2.942-1.319,2.942-2.941C176.398,120.59,175.078,119.27,173.456,119.27z"/>
			<path d="M173.456,137.809c-2.725,0-4.942-2.217-4.942-4.941c0-2.726,2.217-4.943,4.942-4.943s4.942,2.218,4.942,4.943
				C178.398,135.592,176.181,137.809,173.456,137.809z M173.456,129.924c-1.623,0-2.942,1.32-2.942,2.943
				c0,1.622,1.32,2.941,2.942,2.941s2.942-1.319,2.942-2.941C176.398,131.244,175.078,129.924,173.456,129.924z"/>
			<path d="M173.456,148.463c-2.725,0-4.942-2.218-4.942-4.943c0-2.725,2.217-4.941,4.942-4.941s4.942,2.217,4.942,4.941
				C178.398,146.245,176.181,148.463,173.456,148.463z M173.456,140.578c-1.623,0-2.942,1.319-2.942,2.941
				c0,1.623,1.32,2.943,2.942,2.943s2.942-1.32,2.942-2.943C176.398,141.897,175.078,140.578,173.456,140.578z"/>
			<path d="M173.456,129.924c-0.552,0-1-0.447-1-1v-2.77c0-0.553,0.448-1,1-1s1,0.447,1,1v2.77
				C174.456,129.477,174.008,129.924,173.456,129.924z"/>
			<path d="M173.456,119.27c-0.552,0-1-0.447-1-1v-5.059c0-0.553,0.448-1,1-1s1,0.447,1,1v5.059
				C174.456,118.822,174.008,119.27,173.456,119.27z"/>
			<path d="M173.456,140.578c-0.552,0-1-0.447-1-1v-2.77c0-0.553,0.448-1,1-1s1,0.447,1,1v2.77
				C174.456,140.131,174.008,140.578,173.456,140.578z"/>
			<path d="M173.456,159.82c-0.552,0-1-0.447-1-1v-11.357c0-0.553,0.448-1,1-1s1,0.447,1,1v11.357
				C174.456,159.373,174.008,159.82,173.456,159.82z"/>
			<path d="M175.877,114.143h-4.844c-0.552,0-1-0.447-1-1s0.448-1,1-1h4.844c0.552,0,1,0.447,1,1S176.43,114.143,175.877,114.143z"
				/>
			<path d="M183.234,133.867h-5.836c-0.552,0-1-0.447-1-1s0.448-1,1-1h4.836v-10.988c0-0.553,0.448-1,1-1s1,0.447,1,1v11.988
				C184.234,133.42,183.786,133.867,183.234,133.867z"/>
			<path d="M186.059,124.031h-5.743c-0.552,0-1-0.447-1-1s0.448-1,1-1h5.743c0.552,0,1,0.447,1,1S186.611,124.031,186.059,124.031z"
				/>
			<path d="M186.059,127.873h-5.743c-0.552,0-1-0.447-1-1s0.448-1,1-1h5.743c0.552,0,1,0.447,1,1S186.611,127.873,186.059,127.873z"
				/>
			<path d="M177.493,157.129h-8.073c-0.552,0-1-0.447-1-1s0.448-1,1-1h8.073c0.552,0,1,0.447,1,1S178.045,157.129,177.493,157.129z"
				/>
			<path d="M168.904,134.67h-4.702c-0.299,0-0.583-0.134-0.772-0.365s-0.267-0.535-0.208-0.829l0.98-4.958
				c-0.049-1.849-1.568-3.338-3.429-3.338c-1.892,0-3.431,1.538-3.431,3.43c0,0.553-0.448,1-1,1s-1-0.447-1-1
				c0-2.994,2.436-5.43,5.431-5.43c2.994,0,5.43,2.436,5.43,5.43c0,0.065-0.006,0.13-0.019,0.194l-0.764,3.866h3.485
				c0.552,0,1,0.447,1,1S169.456,134.67,168.904,134.67z"/>
		</g>
		<g>
			<path d="M85.73,147.516h-40.5c-0.552,0-1-0.447-1-1s0.448-1,1-1h40.5c0.552,0,1,0.447,1,1S86.282,147.516,85.73,147.516z"/>
			<path d="M78.182,151.018c-2.482,0-4.502-2.02-4.502-4.502s2.02-4.502,4.502-4.502c2.481,0,4.5,2.02,4.5,4.502
				S80.664,151.018,78.182,151.018z M78.182,144.014c-1.379,0-2.502,1.122-2.502,2.502s1.123,2.502,2.502,2.502
				c1.378,0,2.5-1.122,2.5-2.502S79.561,144.014,78.182,144.014z"/>
			<path d="M67.845,142.723c-2.482,0-4.501-2.02-4.501-4.502s2.019-4.502,4.501-4.502c2.481,0,4.5,2.02,4.5,4.502
				S70.327,142.723,67.845,142.723z M67.845,135.719c-1.379,0-2.501,1.122-2.501,2.502s1.122,2.502,2.501,2.502
				c1.378,0,2.5-1.122,2.5-2.502S69.224,135.719,67.845,135.719z"/>
			<path d="M51.976,132.803c-2.482,0-4.501-2.019-4.501-4.5c0-2.482,2.019-4.502,4.501-4.502s4.501,2.02,4.501,4.502
				C56.477,130.784,54.458,132.803,51.976,132.803z M51.976,125.801c-1.379,0-2.501,1.122-2.501,2.502c0,1.379,1.122,2.5,2.501,2.5
				s2.501-1.121,2.501-2.5C54.477,126.923,53.355,125.801,51.976,125.801z"/>
			<path d="M67.844,156.285c-0.552,0-1-0.447-1-1v-13.803c0-0.553,0.448-1,1-1s1,0.447,1,1v13.803
				C68.844,155.838,68.396,156.285,67.844,156.285z"/>
			<path d="M63.496,150.139c-0.552,0-1-0.447-1-1v-5.246c0-0.553,0.448-1,1-1s1,0.447,1,1v5.246
				C64.496,149.691,64.048,150.139,63.496,150.139z"/>
			<path d="M59.041,150.139c-0.552,0-1-0.447-1-1v-5.246c0-0.553,0.448-1,1-1s1,0.447,1,1v5.246
				C60.041,149.691,59.593,150.139,59.041,150.139z"/>
			<path d="M70.126,156.285h-4.564c-0.552,0-1-0.447-1-1s0.448-1,1-1h4.564c0.552,0,1,0.447,1,1S70.679,156.285,70.126,156.285z"/>
			<path d="M51.976,151.018c-0.552,0-1-0.447-1-1v-17.99c0-0.553,0.448-1,1-1s1,0.447,1,1v17.99
				C52.976,150.57,52.528,151.018,51.976,151.018z"/>
			<path d="M67.845,135.719c-0.552,0-1-0.447-1-1v-17.146c0-0.553,0.448-1,1-1h6.835c0.552,0,1,0.447,1,1v4.348c0,0.553-0.448,1-1,1
				s-1-0.447-1-1v-3.348h-4.835v16.146C68.845,135.271,68.397,135.719,67.845,135.719z"/>
		</g>
	</g>
	<g>
		<g>
			<path style="fill:#F2E5A2;" d="M115.646,89.811c-9.007,0-16.867,4.895-21.071,12.168c4.205,7.27,12.064,12.168,21.071,12.168
				s16.859-4.898,21.068-12.168C132.505,94.705,124.653,89.811,115.646,89.811z"/>
			<path d="M115.646,115.146c-9.012,0-17.418-4.854-21.937-12.667l-0.29-0.501l0.29-0.5c4.517-7.814,12.922-12.668,21.937-12.668
				c9.007,0,17.412,4.854,21.934,12.667l0.29,0.501l-0.29,0.501C133.056,110.293,124.651,115.146,115.646,115.146z M95.738,101.979
				c4.228,6.903,11.801,11.168,19.908,11.168c8.099,0,15.672-4.265,19.904-11.168c-4.23-6.903-11.803-11.168-19.904-11.168
				C107.538,90.811,99.963,95.074,95.738,101.979z"/>
		</g>
		<path d="M144.889,99.424c-0.345,0-0.681-0.179-0.867-0.499c-5.848-10.108-16.721-16.388-28.376-16.388
			c-11.654,0-22.528,6.279-28.379,16.388c-0.277,0.479-0.889,0.642-1.367,0.364c-0.478-0.276-0.641-0.889-0.364-1.366
			c6.207-10.724,17.744-17.386,30.11-17.386s23.903,6.662,30.107,17.386c0.276,0.479,0.113,1.09-0.365,1.366
			C145.231,99.381,145.059,99.424,144.889,99.424z"/>
		<circle cx="115.645" cy="101.979" r="7.474"/>
		<path d="M115.643,175.189c-0.363,0-0.698-0.196-0.874-0.514L54.577,66.41c-0.172-0.311-0.167-0.688,0.012-0.993
			s0.507-0.493,0.862-0.493h120.387c0.354,0,0.682,0.188,0.862,0.493s0.185,0.683,0.012,0.993l-60.195,108.266
			C116.341,174.993,116.006,175.189,115.643,175.189z M57.151,66.924l58.492,105.208l58.495-105.208H57.151z"/>
	</g>
	<g>
		<g>
			<g>
				<path style="fill:#F2E5A2;" d="M115.645,226.723c-62.231,0-112.861-50.631-112.861-112.863C2.784,51.629,53.414,1,115.645,1
					s112.86,50.629,112.86,112.859C228.505,176.092,177.876,226.723,115.645,226.723L115.645,226.723z M115.645,19.076
					c-52.265,0-94.785,42.52-94.785,94.783c0,52.266,42.521,94.787,94.785,94.787c52.265,0,94.784-42.521,94.784-94.787
					C210.429,61.596,167.91,19.076,115.645,19.076L115.645,19.076z"/>
				<path d="M115.645,227.723c-62.783,0-113.861-51.079-113.861-113.863C1.784,51.077,52.862,0,115.645,0
					s113.86,51.077,113.86,113.859C229.505,176.644,178.428,227.723,115.645,227.723z M115.645,2
					C53.964,2,3.784,52.18,3.784,113.859c0,61.682,50.181,111.863,111.861,111.863s111.86-50.182,111.86-111.863
					C227.505,52.18,177.325,2,115.645,2z M115.645,209.646c-52.816,0-95.785-42.97-95.785-95.787
					c0-52.815,42.969-95.783,95.785-95.783c52.815,0,95.784,42.968,95.784,95.783C211.429,166.677,168.46,209.646,115.645,209.646z
					 M115.645,20.076c-51.713,0-93.785,42.071-93.785,93.783c0,51.715,42.072,93.787,93.785,93.787s93.784-42.072,93.784-93.787
					C209.429,62.147,167.358,20.076,115.645,20.076z"/>
			</g>
		</g>
		<g>
			<path d="M117.169,226.734c-0.329,0-0.65-0.162-0.842-0.459c-0.299-0.464-0.165-1.083,0.299-1.382
				c8.307-5.35,15.545-11.675,21.513-18.8c0.354-0.423,0.985-0.48,1.409-0.124c0.423,0.354,0.479,0.985,0.125,1.409
				c-6.097,7.278-13.487,13.737-21.963,19.196C117.542,226.683,117.355,226.734,117.169,226.734z"/>
			<path d="M142.823,223.428c-0.102,0-0.207-0.016-0.309-0.049c-9.522-3.095-18.317-7.469-26.139-13
				c-0.451-0.318-0.558-0.942-0.239-1.394c0.318-0.451,0.942-0.559,1.394-0.239c7.658,5.415,16.272,9.698,25.603,12.73
				c0.525,0.171,0.813,0.735,0.642,1.261C143.636,223.159,143.245,223.428,142.823,223.428z"/>
			<path d="M142.823,223.428c-0.251,0-0.503-0.095-0.698-0.284c-0.396-0.385-0.404-1.019-0.019-1.414
				c6.744-6.92,12.325-14.75,16.59-23.271c0.248-0.494,0.847-0.692,1.342-0.447c0.494,0.247,0.694,0.849,0.446,1.342
				c-4.357,8.706-10.058,16.704-16.945,23.772C143.343,223.327,143.083,223.428,142.823,223.428z"/>
			<path d="M167.03,214.268c-0.027,0-0.055-0.001-0.083-0.003c-10.211-0.834-19.773-3.056-28.42-6.604
				c-0.511-0.209-0.755-0.793-0.546-1.305c0.21-0.511,0.795-0.757,1.305-0.545c8.456,3.469,17.817,5.643,27.824,6.459
				c0.55,0.045,0.96,0.528,0.915,1.078C167.983,213.872,167.545,214.268,167.03,214.268z"/>
			<path d="M167.028,214.268c-0.174,0-0.351-0.045-0.511-0.142c-0.474-0.282-0.629-0.896-0.347-1.37
				c5.037-8.447,8.668-17.349,10.792-26.458c0.125-0.538,0.664-0.871,1.201-0.746c0.538,0.125,0.872,0.663,0.747,1.201
				c-2.171,9.31-5.879,18.403-11.022,27.026C167.701,214.094,167.369,214.268,167.028,214.268z"/>
			<path d="M173.489,200.971c-4.756,0-9.451-0.358-14.053-1.076c-0.545-0.085-0.919-0.597-0.834-1.143s0.595-0.918,1.143-0.834
				c9.223,1.439,18.834,1.402,28.57-0.107c0.541-0.082,1.057,0.288,1.142,0.835c0.084,0.546-0.289,1.057-0.835,1.142
				C183.534,200.576,178.478,200.971,173.489,200.971z"/>
			<path d="M188.469,199.799c-0.099,0-0.199-0.015-0.298-0.045c-0.527-0.164-0.822-0.725-0.657-1.252
				c2.988-9.602,4.49-19.097,4.462-28.222c-0.001-0.552,0.445-1.001,0.997-1.003c0.001,0,0.002,0,0.003,0
				c0.551,0,0.999,0.445,1,0.997c0.028,9.329-1.504,19.026-4.553,28.821C189.29,199.524,188.895,199.799,188.469,199.799z"/>
			<path d="M177.935,187.525c-0.516,0-0.953-0.396-0.996-0.919c-0.045-0.551,0.365-1.033,0.916-1.078
				c9.521-0.771,18.874-3.005,27.802-6.637c0.512-0.208,1.095,0.039,1.303,0.55c0.208,0.512-0.038,1.095-0.549,1.304
				c-9.117,3.708-18.67,5.988-28.394,6.777C177.989,187.524,177.962,187.525,177.935,187.525z"/>
			<path d="M206.035,180.818c-0.024,0-0.048-0.001-0.073-0.003c-0.551-0.039-0.965-0.518-0.926-1.068
				c0.709-9.866-0.001-19.452-2.112-28.49c-0.126-0.538,0.208-1.076,0.746-1.201c0.538-0.122,1.076,0.209,1.201,0.746
				c2.156,9.234,2.883,19.021,2.16,29.088C206.993,180.416,206.554,180.818,206.035,180.818z"/>
			<path d="M192.976,171.277c-0.423,0-0.815-0.27-0.952-0.693c-0.169-0.526,0.12-1.09,0.646-1.259
				c8.938-2.876,17.537-7.192,25.555-12.829c0.452-0.318,1.077-0.208,1.393,0.243c0.318,0.452,0.209,1.076-0.243,1.394
				c-8.184,5.752-16.963,10.158-26.093,13.097C193.181,171.262,193.077,171.277,192.976,171.277z"/>
			<path d="M218.799,158.314c-0.482,0-0.907-0.349-0.986-0.84c-1.576-9.728-4.493-18.896-8.669-27.248
				c-0.247-0.494-0.047-1.095,0.447-1.342c0.495-0.246,1.095-0.046,1.342,0.447c4.267,8.534,7.246,17.895,8.854,27.822
				c0.088,0.545-0.282,1.059-0.827,1.147C218.906,158.311,218.852,158.314,218.799,158.314z"/>
			<path d="M203.899,152.029c-0.338,0-0.669-0.172-0.857-0.482c-0.286-0.473-0.134-1.088,0.338-1.373
				c7.987-4.829,15.342-11.016,21.86-18.387c0.366-0.414,0.997-0.452,1.412-0.087c0.414,0.366,0.452,0.998,0.086,1.411
				c-6.652,7.523-14.163,13.84-22.323,18.773C204.253,151.982,204.075,152.029,203.899,152.029z"/>
			<path d="M225.99,133.449c-0.394,0-0.767-0.233-0.926-0.62c-3.715-9.057-8.653-17.31-14.675-24.528
				c-0.354-0.424-0.296-1.055,0.127-1.408c0.424-0.354,1.054-0.298,1.409,0.127c6.153,7.376,11.196,15.804,14.989,25.05
				c0.209,0.512-0.035,1.096-0.546,1.305C226.245,133.426,226.117,133.449,225.99,133.449z"/>
			<path d="M210.039,130.779c-0.26,0-0.521-0.101-0.716-0.302c-0.385-0.396-0.377-1.029,0.019-1.414
				c6.657-6.486,12.402-14.193,17.076-22.909c0.261-0.486,0.868-0.67,1.354-0.408c0.487,0.261,0.669,0.867,0.409,1.354
				c-4.771,8.896-10.64,16.768-17.443,23.396C210.542,130.685,210.29,130.779,210.039,130.779z"/>
			<path d="M227.299,107.627c-0.312,0-0.618-0.145-0.813-0.417c-5.75-8.013-12.436-14.919-19.87-20.527
				c-0.441-0.332-0.529-0.959-0.196-1.4c0.333-0.441,0.959-0.531,1.4-0.195c7.596,5.729,14.422,12.78,20.291,20.957
				c0.322,0.448,0.219,1.073-0.229,1.396C227.705,107.566,227.501,107.627,227.299,107.627z"/>
			<path d="M211.157,108.66c-0.183,0-0.369-0.05-0.535-0.155c-0.466-0.296-0.604-0.914-0.309-1.381
				c5.014-7.903,8.853-16.725,11.409-26.218c0.144-0.533,0.694-0.85,1.226-0.706c0.534,0.144,0.85,0.692,0.706,1.226
				c-2.609,9.689-6.529,18.696-11.652,26.771C211.812,108.496,211.488,108.66,211.157,108.66z"/>
			<path d="M222.688,82.166c-0.234,0-0.468-0.081-0.658-0.247c-7.306-6.396-15.415-11.567-24.099-15.374
				c-0.506-0.222-0.736-0.812-0.515-1.317c0.223-0.506,0.814-0.736,1.317-0.515c8.872,3.889,17.153,9.171,24.614,15.7
				c0.416,0.364,0.458,0.996,0.094,1.411C223.243,82.051,222.966,82.166,222.688,82.166z"/>
			<path d="M207.218,86.885c-0.109,0-0.221-0.018-0.33-0.056c-0.521-0.183-0.796-0.753-0.614-1.274
				c3.027-8.664,4.716-18.124,5.02-28.118c0.017-0.553,0.482-0.968,1.03-0.97c0.552,0.018,0.986,0.479,0.969,1.03
				c-0.31,10.198-2.036,19.86-5.131,28.718C208.018,86.627,207.631,86.885,207.218,86.885z"/>
			<path d="M212.292,58.467c-0.158,0-0.318-0.037-0.467-0.116c-8.633-4.573-17.709-7.746-26.976-9.429
				c-0.543-0.1-0.904-0.62-0.805-1.163c0.099-0.544,0.619-0.903,1.163-0.806c9.469,1.721,18.74,4.96,27.555,9.63
				c0.488,0.259,0.674,0.864,0.416,1.352C212.998,58.273,212.651,58.467,212.292,58.467z"/>
			<path d="M198.333,66.629c-0.035,0-0.07-0.002-0.105-0.006c-0.549-0.057-0.948-0.549-0.891-1.099
				c0.964-9.213,0.437-18.811-1.566-28.527c-0.111-0.541,0.237-1.07,0.778-1.182c0.54-0.11,1.069,0.236,1.181,0.777
				c2.044,9.919,2.581,19.723,1.596,29.141C199.272,66.247,198.838,66.629,198.333,66.629z"/>
			<path d="M196.751,37.795c-0.083,0-0.167-0.01-0.25-0.031c-9.675-2.495-19.232-3.513-28.412-3.017
				c-0.564,0.029-1.022-0.394-1.052-0.945s0.394-1.022,0.945-1.053c9.383-0.502,19.145,0.532,29.018,3.077
				c0.535,0.139,0.857,0.684,0.719,1.219C197.603,37.496,197.196,37.795,196.751,37.795z"/>
			<path d="M185.026,48.938c-0.494,0-0.924-0.366-0.99-0.87c-1.233-9.405-3.939-18.632-8.042-27.424
				c-0.233-0.5-0.017-1.096,0.483-1.329c0.5-0.231,1.095-0.017,1.329,0.483c4.19,8.978,6.953,18.401,8.213,28.01
				c0.072,0.548-0.314,1.05-0.862,1.121C185.114,48.935,185.07,48.938,185.026,48.938z"/>
			<path d="M148.258,24.828c-0.434,0-0.833-0.284-0.96-0.721c-0.154-0.53,0.151-1.086,0.682-1.239
				c9.055-2.63,18.794-3.86,28.941-3.647c0.552,0.012,0.991,0.469,0.979,1.021c-0.012,0.553-0.496,0.966-1.021,0.979
				c-9.945-0.213-19.482,0.994-28.342,3.567C148.444,24.815,148.35,24.828,148.258,24.828z"/>
			<path d="M168.036,34.748c-0.403,0-0.784-0.246-0.935-0.646c-3.345-8.828-8.096-17.193-14.12-24.861
				c-0.341-0.435-0.266-1.063,0.169-1.404c0.434-0.342,1.062-0.267,1.404,0.168c6.149,7.829,11,16.371,14.417,25.389
				c0.196,0.517-0.064,1.094-0.581,1.29C168.273,34.728,168.153,34.748,168.036,34.748z"/>
			<path d="M126.721,19.783c-0.349,0-0.688-0.183-0.872-0.508c-0.271-0.48-0.103-1.091,0.378-1.362
				c8.311-4.7,17.505-8.154,27.329-10.268c0.538-0.119,1.072,0.227,1.188,0.768c0.116,0.54-0.228,1.071-0.767,1.188
				c-9.625,2.07-18.631,5.453-26.765,10.053C127.057,19.741,126.888,19.783,126.721,19.783z"/>
			<path d="M148.259,24.828c-0.321,0-0.636-0.154-0.829-0.439c-5.221-7.716-11.777-14.744-19.485-20.89
				c-0.432-0.345-0.502-0.974-0.158-1.405c0.344-0.433,0.974-0.502,1.405-0.159c7.866,6.272,14.56,13.45,19.894,21.333
				c0.31,0.457,0.19,1.079-0.268,1.389C148.647,24.772,148.452,24.828,148.259,24.828z"/>
			<path d="M104.569,19.783c-0.269,0-0.538-0.107-0.734-0.321c-0.375-0.405-0.351-1.038,0.055-1.413
				c7.009-6.485,15.169-11.948,24.252-16.236c0.5-0.235,1.096-0.021,1.331,0.478c0.236,0.499,0.022,1.096-0.478,1.331
				c-8.898,4.201-16.888,9.55-23.748,15.896C105.056,19.695,104.812,19.783,104.569,19.783z"/>
			<path d="M126.72,19.783c-0.243,0-0.487-0.088-0.679-0.266c-6.858-6.345-14.848-11.693-23.75-15.896
				c-0.499-0.236-0.713-0.832-0.477-1.331s0.832-0.713,1.332-0.478c9.086,4.291,17.246,9.754,24.254,16.236
				c0.405,0.375,0.43,1.008,0.055,1.413C127.257,19.676,126.989,19.783,126.72,19.783z"/>
			<path d="M83.03,24.83c-0.193,0-0.388-0.056-0.559-0.172c-0.458-0.31-0.578-0.931-0.268-1.389
				c5.333-7.884,12.025-15.062,19.892-21.335c0.432-0.344,1.061-0.273,1.405,0.159s0.273,1.061-0.158,1.405
				C95.634,9.644,89.079,16.673,83.859,24.39C83.666,24.676,83.351,24.83,83.03,24.83z"/>
			<path d="M104.568,19.783c-0.167,0-0.336-0.042-0.491-0.13C95.941,15.052,86.936,11.671,77.311,9.6
				c-0.54-0.116-0.883-0.647-0.767-1.188c0.116-0.541,0.646-0.887,1.188-0.768c9.823,2.112,19.018,5.567,27.33,10.268
				c0.481,0.271,0.65,0.882,0.378,1.362C105.255,19.601,104.917,19.783,104.568,19.783z"/>
			<path d="M63.253,34.748c-0.118,0-0.238-0.021-0.354-0.064c-0.517-0.196-0.776-0.773-0.581-1.29
				c3.418-9.018,8.269-17.56,14.416-25.388c0.341-0.437,0.97-0.512,1.404-0.169c0.434,0.341,0.51,0.97,0.169,1.403
				c-6.022,7.669-10.773,16.034-14.119,24.862C64.037,34.502,63.657,34.748,63.253,34.748z"/>
			<path d="M83.031,24.83c-0.092,0-0.187-0.013-0.28-0.04c-8.86-2.575-18.397-3.775-28.341-3.567
				c-0.525-0.012-1.009-0.426-1.021-0.979c-0.011-0.552,0.427-1.009,0.979-1.021c10.155-0.211,19.887,1.016,28.942,3.647
				c0.53,0.154,0.835,0.709,0.681,1.239C83.864,24.546,83.465,24.83,83.031,24.83z"/>
			<path d="M46.263,48.939c-0.043,0-0.087-0.003-0.131-0.009c-0.548-0.071-0.934-0.573-0.862-1.121
				c1.261-9.611,4.024-19.035,8.213-28.01c0.234-0.5,0.829-0.715,1.329-0.483c0.5,0.233,0.717,0.829,0.483,1.329
				c-4.103,8.789-6.809,18.016-8.042,27.424C47.187,48.573,46.757,48.939,46.263,48.939z"/>
			<path d="M34.538,37.797c-0.445,0-0.852-0.299-0.968-0.75c-0.138-0.535,0.184-1.08,0.719-1.219
				c9.877-2.547,19.64-3.58,29.018-3.079c0.551,0.03,0.975,0.501,0.945,1.053s-0.488,0.975-1.052,0.945
				c-9.173-0.494-18.732,0.522-28.412,3.019C34.705,37.787,34.621,37.797,34.538,37.797z"/>
			<path d="M32.957,66.631c-0.506,0-0.94-0.382-0.994-0.896c-0.985-9.418-0.448-19.222,1.596-29.141
				c0.112-0.541,0.643-0.884,1.181-0.777c0.541,0.111,0.889,0.641,0.778,1.182c-2.003,9.717-2.53,19.314-1.566,28.527
				c0.058,0.55-0.341,1.042-0.891,1.099C33.026,66.629,32.991,66.631,32.957,66.631z"/>
			<path d="M18.997,58.469c-0.358,0-0.705-0.193-0.885-0.532c-0.258-0.487-0.072-1.093,0.416-1.352
				c8.815-4.67,18.086-7.909,27.555-9.63c0.546-0.096,1.063,0.262,1.163,0.806c0.099,0.543-0.262,1.063-0.805,1.163
				c-9.267,1.683-18.343,4.855-26.976,9.429C19.314,58.432,19.154,58.469,18.997,58.469z"/>
			<path d="M24.071,86.889c-0.414,0-0.8-0.258-0.944-0.67c-3.095-8.859-4.821-18.521-5.131-28.72
				c-0.017-0.552,0.417-1.013,0.969-1.03c0.547-0.028,1.013,0.417,1.03,0.97c0.304,9.993,1.993,19.454,5.02,28.12
				c0.182,0.521-0.093,1.092-0.614,1.274C24.292,86.871,24.18,86.889,24.071,86.889z"/>
			<path d="M8.602,82.168c-0.278,0-0.555-0.115-0.753-0.341c-0.364-0.416-0.322-1.048,0.094-1.411
				c7.456-6.528,15.737-11.811,24.614-15.701c0.505-0.218,1.096,0.009,1.317,0.515c0.222,0.506-0.009,1.096-0.515,1.317
				C24.67,70.355,16.562,75.527,9.26,81.92C9.07,82.087,8.835,82.168,8.602,82.168z"/>
			<path d="M20.132,108.662c-0.331,0-0.655-0.164-0.845-0.465c-5.123-8.076-9.043-17.082-11.652-26.77
				c-0.144-0.533,0.172-1.082,0.706-1.226c0.538-0.144,1.082,0.173,1.226,0.706c2.556,9.491,6.395,18.313,11.409,26.219
				c0.296,0.466,0.158,1.084-0.309,1.38C20.501,108.612,20.315,108.662,20.132,108.662z"/>
			<path d="M3.99,107.631c-0.202,0-0.405-0.061-0.582-0.188c-0.449-0.322-0.551-0.946-0.229-1.396
				c5.869-8.181,12.695-15.232,20.291-20.958c0.441-0.332,1.068-0.243,1.4,0.197c0.333,0.44,0.245,1.067-0.196,1.4
				c-7.434,5.604-14.119,12.51-19.87,20.526C4.608,107.486,4.301,107.631,3.99,107.631z"/>
			<path d="M21.25,130.779c-0.251,0-0.503-0.095-0.698-0.283c-6.8-6.623-12.669-14.494-17.443-23.393
				c-0.261-0.486-0.078-1.093,0.409-1.354c0.487-0.262,1.093-0.078,1.354,0.408c4.677,8.718,10.423,16.425,17.076,22.904
				c0.396,0.386,0.404,1.019,0.019,1.414C21.771,130.679,21.511,130.779,21.25,130.779z"/>
			<path d="M5.3,133.449c-0.126,0-0.255-0.023-0.379-0.075c-0.511-0.209-0.755-0.793-0.546-1.305
				c3.795-9.249,8.837-17.676,14.989-25.048c0.354-0.425,0.984-0.48,1.408-0.127s0.481,0.984,0.127,1.408
				c-6.02,7.215-10.957,15.467-14.674,24.526C6.067,133.216,5.693,133.449,5.3,133.449z"/>
			<path d="M27.39,152.029c-0.176,0-0.354-0.047-0.517-0.145c-8.161-4.935-15.671-11.25-22.322-18.773
				c-0.366-0.413-0.327-1.046,0.086-1.411c0.415-0.365,1.046-0.327,1.412,0.087c6.517,7.371,13.872,13.557,21.859,18.387
				c0.473,0.285,0.624,0.9,0.338,1.373C28.059,151.857,27.729,152.029,27.39,152.029z"/>
			<path d="M12.491,158.314c-0.053,0-0.107-0.004-0.161-0.013c-0.545-0.089-0.916-0.603-0.827-1.147
				c1.608-9.927,4.587-19.287,8.854-27.822c0.247-0.493,0.846-0.693,1.342-0.447c0.494,0.247,0.694,0.848,0.447,1.342
				c-4.176,8.354-7.092,17.521-8.668,27.248C13.397,157.966,12.973,158.314,12.491,158.314z"/>
			<path d="M38.314,171.277c-0.101,0-0.205-0.016-0.306-0.048c-9.13-2.938-17.91-7.345-26.093-13.097
				c-0.452-0.317-0.561-0.941-0.243-1.394c0.316-0.451,0.941-0.562,1.393-0.243c8.019,5.637,16.617,9.953,25.555,12.829
				c0.526,0.169,0.815,0.732,0.646,1.259C39.129,171.008,38.737,171.277,38.314,171.277z"/>
			<path d="M25.255,180.82c-0.52,0-0.958-0.401-0.997-0.929c-0.724-10.067,0.002-19.854,2.159-29.09
				c0.125-0.537,0.661-0.869,1.201-0.746c0.538,0.125,0.872,0.663,0.746,1.201c-2.11,9.039-2.821,18.625-2.111,28.492
				c0.04,0.551-0.375,1.029-0.926,1.068C25.304,180.819,25.279,180.82,25.255,180.82z"/>
			<path d="M53.355,187.525c-0.027,0-0.054-0.001-0.082-0.003c-9.728-0.789-19.281-3.068-28.394-6.775
				c-0.511-0.209-0.757-0.792-0.549-1.304c0.208-0.511,0.79-0.758,1.303-0.55c8.923,3.631,18.277,5.862,27.802,6.635
				c0.55,0.045,0.96,0.527,0.916,1.078C54.308,187.129,53.871,187.525,53.355,187.525z"/>
			<path d="M42.821,199.799c-0.426,0-0.821-0.274-0.954-0.703c-3.049-9.795-4.581-19.492-4.553-28.821
				c0.001-0.552,0.449-0.997,1-0.997c0.001,0,0.002,0,0.003,0c0.552,0.002,0.999,0.451,0.997,1.003
				c-0.027,9.125,1.474,18.62,4.462,28.222c0.165,0.527-0.13,1.088-0.657,1.252C43.02,199.784,42.92,199.799,42.821,199.799z"/>
			<path d="M57.801,200.972c-4.988,0-10.044-0.395-15.133-1.185c-0.546-0.085-0.919-0.596-0.835-1.142
				c0.084-0.547,0.604-0.917,1.142-0.835c9.736,1.513,19.348,1.549,28.569,0.107c0.545-0.083,1.057,0.288,1.142,0.834
				s-0.288,1.057-0.833,1.143C67.252,200.613,62.558,200.972,57.801,200.972z"/>
			<path d="M64.263,214.268c-0.341,0-0.673-0.174-0.86-0.487c-5.145-8.626-8.854-17.72-11.023-27.028
				c-0.125-0.537,0.209-1.075,0.747-1.2c0.538-0.124,1.075,0.208,1.201,0.747c2.123,9.106,5.754,18.008,10.793,26.456
				c0.283,0.475,0.127,1.089-0.347,1.371C64.614,214.222,64.438,214.268,64.263,214.268z"/>
			<path d="M64.261,214.268c-0.516,0-0.953-0.396-0.996-0.919c-0.045-0.55,0.365-1.033,0.915-1.078
				c10.007-0.816,19.368-2.99,27.824-6.459c0.51-0.212,1.095,0.034,1.305,0.545c0.209,0.512-0.035,1.096-0.546,1.305
				c-8.646,3.548-18.208,5.77-28.42,6.604C64.316,214.267,64.289,214.268,64.261,214.268z"/>
			<path d="M88.467,223.428c-0.26,0-0.521-0.101-0.716-0.302c-6.888-7.07-12.589-15.067-16.946-23.772
				c-0.248-0.493-0.047-1.095,0.446-1.342c0.494-0.246,1.094-0.048,1.342,0.447c4.265,8.52,9.847,16.35,16.591,23.271
				c0.385,0.396,0.377,1.029-0.019,1.414C88.971,223.333,88.719,223.428,88.467,223.428z"/>
			<path d="M88.467,223.428c-0.422,0-0.813-0.269-0.951-0.69c-0.17-0.525,0.117-1.09,0.642-1.261
				c9.333-3.033,17.947-7.316,25.604-12.73c0.451-0.319,1.075-0.212,1.394,0.239s0.212,1.075-0.239,1.394
				c-7.821,5.53-16.616,9.904-26.14,13C88.674,223.412,88.569,223.428,88.467,223.428z"/>
			<path d="M114.122,226.734c-0.186,0-0.373-0.052-0.541-0.159c-8.478-5.459-15.867-11.918-21.963-19.197
				c-0.354-0.423-0.299-1.054,0.125-1.408c0.422-0.355,1.054-0.299,1.409,0.125c5.967,7.124,13.205,13.449,21.513,18.799
				c0.464,0.299,0.598,0.918,0.299,1.382C114.772,226.572,114.45,226.734,114.122,226.734z"/>
		</g>
		<g>
			<path style="fill:#F2E5A2;" d="M228.505,113.859C228.505,51.629,177.876,1,115.645,1S2.784,51.629,2.784,113.859
				c0,62.232,50.63,112.863,112.861,112.863C177.876,226.723,228.505,176.092,228.505,113.859z M116.107,222.988
				c-60.269,0-109.128-48.857-109.128-109.129c0-60.267,48.858-109.127,109.128-109.127s109.127,48.859,109.127,109.127
				C225.234,174.131,176.376,222.988,116.107,222.988z"/>
			<path d="M115.645,227.723c-62.783,0-113.861-51.079-113.861-113.863C1.784,51.077,52.862,0,115.645,0
				s113.86,51.077,113.86,113.859C229.505,176.644,178.428,227.723,115.645,227.723z M115.645,2C53.964,2,3.784,52.18,3.784,113.859
				c0,61.682,50.181,111.863,111.861,111.863s111.86-50.182,111.86-111.863C227.505,52.18,177.325,2,115.645,2z M116.107,223.988
				c-60.725,0-110.128-49.403-110.128-110.129c0-60.725,49.403-110.127,110.128-110.127c60.724,0,110.127,49.402,110.127,110.127
				C226.234,174.585,176.831,223.988,116.107,223.988z M116.107,5.732C56.485,5.732,7.979,54.238,7.979,113.859
				c0,59.622,48.506,108.129,108.128,108.129s108.127-48.507,108.127-108.129C224.234,54.238,175.729,5.732,116.107,5.732z"/>
		</g>
		<g>
			<path style="fill:#F2E5A2;" d="M82.414,202.098c0,0,31.866-15.779,47.344-3.033c0,0,14.032-4.582,19.798,3.311l-18.473,4.715
				c0,0-8.609,11.699-23.48,11.094c0,0,17.298,7.586,31.562,6.979c0,0,2.731,9.41-18.512,2.732c0,0-7.891-3.035-18.815-0.305
				c0,0-8.193,0.912-13.05-3.943C88.787,223.647,70.86,215.648,82.414,202.098z"/>
			<path d="M132.889,231.289c-3.167,0-7.385-0.821-12.537-2.44c-0.094-0.034-3.737-1.398-9.369-1.398
				c-2.963,0-5.959,0.374-8.904,1.109c-0.043,0.012-0.087,0.02-0.132,0.024c-0.027,0.003-0.679,0.074-1.709,0.074
				c-2.899,0-8.287-0.547-12.029-4.177c-1.278-0.604-8.896-4.458-10.416-11.174c-0.87-3.845,0.428-7.835,3.859-11.858
				c0.088-0.104,0.196-0.188,0.317-0.248c0.669-0.331,16.551-8.109,31.509-8.109c6.8,0,12.346,1.636,16.494,4.864
				c1.27-0.362,4.66-1.214,8.479-1.214c5.383,0,9.502,1.743,11.912,5.043c0.196,0.268,0.246,0.615,0.133,0.928
				s-0.372,0.549-0.694,0.631l-18.138,4.63c-1.313,1.656-8.082,9.524-19.299,10.995c6.002,2.173,17.146,5.597,26.756,5.194
				c0.46-0.038,0.875,0.278,1.003,0.721c0.026,0.09,0.622,2.219-0.749,4.045C138.199,230.494,136.017,231.289,132.889,231.289z
				 M110.983,225.45c6.03,0,9.867,1.449,10.027,1.511c4.898,1.538,8.914,2.328,11.878,2.328c2.43,0,4.12-0.54,4.887-1.562
				c0.388-0.517,0.493-1.093,0.502-1.538c-14.119,0.269-30.405-6.795-31.078-7.09c-0.44-0.193-0.681-0.673-0.572-1.141
				c0.108-0.469,0.532-0.804,1.015-0.774c0.361,0.015,0.717,0.021,1.07,0.021c0.001,0,0.001,0,0.002,0
				c13.489-0.001,21.483-10.603,21.563-10.71c0.137-0.186,0.334-0.318,0.558-0.375l16.905-4.315c-2.1-2.034-5.216-3.063-9.29-3.063
				c-4.432,0-8.344,1.26-8.383,1.272c-0.326,0.105-0.682,0.039-0.946-0.179c-3.823-3.148-9.086-4.744-15.643-4.744
				c-13.645,0-28.62,6.944-30.438,7.813c-2.897,3.459-4.007,6.808-3.297,9.954c1.398,6.2,9.372,9.838,9.452,9.874
				c0.111,0.05,0.213,0.12,0.299,0.206c3.236,3.235,8.121,3.719,10.744,3.719c0.74,0,1.258-0.041,1.428-0.057
				C104.747,225.838,107.881,225.45,110.983,225.45z"/>
		</g>
		<g>
			<path style="fill:#F2E5A2;" d="M104.697,201.994c7.751,7.793,21.513,1.916,21.513,1.916
				C118.116,196.457,104.697,201.994,104.697,201.994z"/>
			<path d="M115.582,207.035L115.582,207.035c-4.832,0-8.732-1.459-11.594-4.336c-0.235-0.236-0.337-0.575-0.271-0.902
				s0.291-0.6,0.599-0.728c0.203-0.083,5.042-2.054,10.761-2.054c4.84,0,8.813,1.399,11.81,4.159c0.25,0.229,0.366,0.57,0.308,0.904
				c-0.057,0.335-0.28,0.617-0.592,0.751C126.392,204.92,121.373,207.035,115.582,207.035z M106.646,202.373
				c2.333,1.768,5.33,2.662,8.935,2.662h0.001c3.492,0,6.751-0.856,8.616-1.461c-2.436-1.699-5.496-2.559-9.122-2.559
				C111.616,201.016,108.451,201.811,106.646,202.373z"/>
		</g>
		<circle cx="115.453" cy="203.025" r="1.427"/>
		<g>
			<path style="fill:#F5F5F5;" d="M135.664,200.416c0,0,2.969-0.844,5.673,1"/>
			<path d="M141.335,202.416c-0.194,0-0.39-0.057-0.563-0.174c-2.291-1.562-4.81-0.87-4.836-0.864
				c-0.533,0.152-1.085-0.158-1.235-0.688c-0.151-0.531,0.157-1.084,0.688-1.235c0.14-0.039,3.455-0.948,6.51,1.136
				c0.456,0.312,0.574,0.934,0.263,1.39C141.969,202.264,141.655,202.416,141.335,202.416z"/>
		</g>
	</g>
</g>
</svg>
